<?xml version="1.0" encoding="utf-8"?>
<!-- Generator: Adobe Illustrator 23.0.1, SVG Export Plug-In . SVG Version: 6.00 Build 0)  -->
<!DOCTYPE svg PUBLIC "-//W3C//DTD SVG 1.1//EN" "http://www.w3.org/Graphics/SVG/1.1/DTD/svg11.dtd" [
	<!ENTITY ns_extend "http://ns.adobe.com/Extensibility/1.0/">
	<!ENTITY ns_ai "http://ns.adobe.com/AdobeIllustrator/10.0/">
	<!ENTITY ns_graphs "http://ns.adobe.com/Graphs/1.0/">
	<!ENTITY ns_vars "http://ns.adobe.com/Variables/1.0/">
	<!ENTITY ns_imrep "http://ns.adobe.com/ImageReplacement/1.0/">
	<!ENTITY ns_sfw "http://ns.adobe.com/SaveForWeb/1.0/">
	<!ENTITY ns_custom "http://ns.adobe.com/GenericCustomNamespace/1.0/">
	<!ENTITY ns_adobe_xpath "http://ns.adobe.com/XPath/1.0/">
]>
<svg version="1.1" id="Layer_1" xmlns:x="&ns_extend;" xmlns:i="&ns_ai;" xmlns:graph="&ns_graphs;"
	 xmlns="http://www.w3.org/2000/svg" xmlns:xlink="http://www.w3.org/1999/xlink" x="0px" y="0px" viewBox="0 0 165 50"
	 style="enable-background:new 0 0 165 50;" xml:space="preserve">
<style type="text/css">
	.Drop_x0020_Shadow{fill:none;}
	.Round_x0020_Corners_x0020_2_x0020_pt{fill:#FFFFFF;stroke:#000000;stroke-miterlimit:10;}
	.Live_x0020_Reflect_x0020_X{fill:none;}
	.Bevel_x0020_Soft{fill:url(#SVGID_1_);}
	.Dusk{fill:#FFFFFF;}
	.Foliage_GS{fill:#FFDD00;}
	.Pompadour_GS{fill-rule:evenodd;clip-rule:evenodd;fill:#44ADE2;}
	.st0{fill:#FFFFFF;}
	.st1{fill:#F08B28;}
</style>
<metadata>
	<sfw  xmlns="&ns_sfw;">
		<slices></slices>
		<sliceSourceBounds  bottomLeftOrigin="true" height="49.4" width="165" x="0" y="-49.5"></sliceSourceBounds>
	</sfw>
</metadata>
<linearGradient id="SVGID_1_" gradientUnits="userSpaceOnUse" x1="0" y1="0" x2="0.7071" y2="0.7071">
	<stop  offset="0" style="stop-color:#DEDFE3"/>
	<stop  offset="0.1738" style="stop-color:#D8D9DD"/>
	<stop  offset="0.352" style="stop-color:#C9CACD"/>
	<stop  offset="0.5323" style="stop-color:#B4B5B8"/>
	<stop  offset="0.7139" style="stop-color:#989A9C"/>
	<stop  offset="0.8949" style="stop-color:#797C7E"/>
	<stop  offset="1" style="stop-color:#656B6C"/>
</linearGradient>
<g>
	<g>
		<path class="st0" d="M26.7,18.9h-0.9c0.1-1.3,0.2-2.2,0.2-2.9c0-0.9-0.3-1.7-0.8-2.2C24.7,13.3,24,13,23.1,13
			c-1.3,0-2.5,0.5-3.5,1.5c-1,1-1.5,2.1-1.5,3.3c0,0.6,0.1,1.2,0.4,1.8c0.3,0.5,0.9,1.3,1.8,2.2c1.7,1.7,2.8,3,3.4,3.9
			c0.5,1,0.8,1.9,0.8,2.8c0,1.3-0.4,2.6-1.2,3.8c-0.8,1.2-2,2.2-3.6,3c-1.6,0.8-3.2,1.2-5,1.2c-1.7,0-3.2-0.5-4.4-1.4
			c-1.2-0.9-1.8-1.9-1.8-2.8c0-0.5,0.2-1,0.5-1.3c0.3-0.4,0.7-0.5,1.1-0.5c0.4,0,0.8,0.2,1,0.5c0.2,0.2,0.3,0.6,0.5,1.3
			c0.2,0.8,0.4,1.4,0.7,1.8c0.3,0.4,0.7,0.7,1.2,0.9c0.5,0.2,1,0.4,1.6,0.4c1.7,0,3.3-0.6,4.6-1.8c1.3-1.2,2-2.5,2-3.9
			c0-0.5-0.1-1-0.2-1.5c-0.2-0.5-0.5-1-0.9-1.6c-0.3-0.4-1-1.1-2-2.2c-1-1-1.7-1.7-2-2.1c-0.4-0.5-0.7-1.1-0.8-1.7
			c-0.2-0.6-0.3-1.1-0.3-1.7c0-1.1,0.4-2.2,1.1-3.3c0.7-1.1,1.7-2,2.9-2.7c1.2-0.7,2.5-1,4-1c0.8,0,1.7,0.1,2.8,0.3
			c0.6,0.1,1.2,0.2,1.6,0.3c-0.3,0.8-0.5,1.5-0.6,2.2C27.2,15.5,27,16.8,26.7,18.9z"/>
		<path class="st0" d="M37.3,18.4c1.2,0,2.2,0.5,3,1.4c0.8,0.9,1.2,2.3,1.2,4c0,2.7-0.9,5.1-2.8,7.3c-1.9,2.1-3.9,3.2-6,3.2
			c-1.3,0-2.4-0.4-3.2-1.3c-0.8-0.9-1.2-2-1.2-3.5c0-2.6,0.7-4.9,2.2-7.1C32.3,19.7,34.6,18.4,37.3,18.4z M35.8,19.8
			c-1,0-2,0.7-3,2.2c-1,1.5-1.5,3.5-1.5,6.1c0,1.6,0.3,2.8,0.9,3.7c0.4,0.7,1,1,1.8,1c1,0,2-0.6,2.8-1.9c1.1-1.6,1.6-3.7,1.6-6.1
			c0-1.8-0.2-3.1-0.7-3.9C37.2,20.2,36.5,19.8,35.8,19.8z"/>
		<path class="st0" d="M43.9,19.6h4.4c0.7-3,1.5-5.3,2.5-6.8c0.9-1.5,2.1-2.7,3.6-3.5C55.8,8.4,57.2,8,58.5,8c0.7,0,1.3,0.1,1.7,0.4
			c0.4,0.3,0.6,0.6,0.6,1c0,0.4-0.1,0.7-0.4,0.9c-0.3,0.2-0.6,0.4-1,0.4c-0.4,0-1.2-0.1-2.4-0.4c-0.6-0.1-1-0.2-1.4-0.2
			c-0.8,0-1.5,0.5-2.2,1.5c-0.6,1-1.2,2.3-1.6,4l-0.9,3.9h4.8l-0.3,1.3h-4.9l-2.9,11.7c-0.9,3.5-2.3,6.2-4.3,8.1
			c-2,1.8-4.1,2.7-6.4,2.7c-0.8,0-1.3-0.1-1.7-0.4c-0.4-0.3-0.6-0.7-0.6-1.1c0-0.4,0.1-0.7,0.4-0.9c0.3-0.2,0.7-0.3,1.2-0.3
			c0.3,0,0.6,0,1.1,0.1c0.9,0.1,1.7,0.2,2.4,0.2c1.2,0,2.1-0.3,2.6-0.8c0.5-0.6,1.1-2,1.6-4.2l3.7-14.9h-4.4L43.9,19.6z"/>
		<path class="st0" d="M60.3,15.6l2.9-1.1l-1.3,5.1h3.8l-0.3,1.3h-3.8L60,27c-0.5,1.8-0.8,3.1-0.8,3.8c0,0.3,0.1,0.6,0.2,0.7
			c0.1,0.1,0.3,0.2,0.6,0.2c0.4,0,1-0.2,1.7-0.7c1-0.6,2-1.3,2.9-2l0.7,0.8c-2.7,2-4.5,3.2-5.4,3.7c-0.9,0.5-1.6,0.7-2.2,0.7
			c-0.5,0-0.8-0.2-1.1-0.5c-0.3-0.3-0.4-0.9-0.4-1.6c0-0.9,0.2-2.2,0.7-4l1.9-7.3h-3l0.3-1.3h3L60.3,15.6z"/>
		<path class="st0" d="M84.1,16.2l0.2-0.8c1.3-0.1,2.9-0.4,4.7-0.8c-0.5,1.4-1,2.9-1.4,4.6l-1.2,5.1c-0.9,3.7-1.8,6.5-2.9,8.3
			c1,0.2,2,0.3,2.8,0.3c2.1,0,4-0.4,5.6-1.3c1.6-0.9,2.8-2.2,3.8-3.9C96.5,26,97,24.1,97,22c0-2.7-0.8-4.9-2.4-6.5
			C93,13.8,90.9,13,88.4,13c-2.2,0-4.2,0.5-6.1,1.5c-1.9,1-3.4,2.4-4.5,4.1c-1.1,1.7-1.7,3.3-1.7,4.9c0,1.6,0.7,2.7,2,3.4
			c0.4,0.2,0.6,0.4,0.8,0.6c0.1,0.2,0.2,0.4,0.2,0.6c0,0.3-0.1,0.6-0.3,0.8c-0.2,0.2-0.5,0.3-0.8,0.3c-0.6,0-1.3-0.4-1.9-1.3
			c-0.8-1.2-1.2-2.4-1.2-3.7c0-2.1,0.6-4.1,1.9-6.1c1.2-2,3-3.5,5.2-4.7c2.2-1.2,4.7-1.7,7.4-1.7c3.4,0,6,0.9,8,2.7
			c2,1.8,3,4.1,3,6.8c0,2.5-0.7,4.8-2.1,7c-1.4,2.1-3.1,3.6-5,4.5c-2,0.9-3.9,1.3-5.9,1.3c-0.6,0-1.7-0.1-3.3-0.2
			c-1.3-0.1-2.6-0.1-3.7-0.1c-0.5,0-1.4,0-2.5,0.1l0.4-0.9c1.1-0.1,1.8-0.2,2.1-0.3c0.3-0.1,0.5-0.4,0.7-0.7
			c0.4-0.6,0.8-1.8,1.4-3.7l1.3-4.8l1.5-6c0.1-0.3,0.1-0.5,0.1-0.7c0-0.2-0.1-0.3-0.2-0.5c-0.1-0.1-0.3-0.2-0.5-0.2
			C84.5,16.1,84.4,16.2,84.1,16.2z"/>
		<path class="st0" d="M105,33.8h-2.7l1.3-4.9c0.6-2.4,1.2-4.7,1.6-6.9c0.1-0.5,0.2-0.9,0.2-1c0-0.3-0.1-0.4-0.4-0.4
			c-0.2,0-0.5,0.1-0.8,0.4c-0.4,0.2-1.1,0.9-2,1.9l-0.6-0.6c1.2-1.3,2.3-2.2,3.5-2.8c1.2-0.6,2.1-0.9,2.7-0.9c0.2,0,0.4,0.1,0.5,0.2
			c0.1,0.1,0.2,0.2,0.2,0.4c0,0.2-0.1,0.6-0.2,1.3l-0.8,3.3c1.2-1.9,2.6-3.6,4.2-5c0.7-0.7,1.4-1,1.9-1c0.4,0,0.7,0.1,0.9,0.4
			c0.2,0.2,0.4,0.5,0.4,0.8c0,0.3-0.1,0.6-0.4,0.8c-0.2,0.2-0.8,0.5-1.8,0.8c-0.9,0.3-1.6,0.7-2.2,1.1c-0.6,0.4-1.2,1.1-1.9,2
			c-0.7,0.9-1.1,1.6-1.4,2.3c-0.3,0.7-0.7,2.2-1.2,4.5L105,33.8z"/>
		<path class="st0" d="M113.4,22.6l-0.8-0.6c1.2-1.3,2.3-2.3,3.3-2.9c1-0.6,1.9-0.8,2.6-0.8c0.4,0,0.7,0.1,0.9,0.3
			c0.2,0.2,0.3,0.4,0.3,0.7c0,0.4-0.4,1.9-1.2,4.5c-1.3,4.3-1.9,6.9-1.9,7.8c0,0.2,0,0.3,0.1,0.4c0.1,0.1,0.2,0.2,0.3,0.2
			c0.4,0,1.4-0.8,3-2.3l0.7,0.7c-1.7,1.6-2.9,2.6-3.7,3c-0.8,0.4-1.4,0.7-1.9,0.7c-0.4,0-0.8-0.1-1-0.4c-0.2-0.3-0.4-0.6-0.4-1.1
			c0-1.5,0.9-5.2,2.7-11.2c0.1-0.3,0.1-0.5,0.1-0.7c0-0.2-0.1-0.4-0.3-0.4c-0.2,0-0.5,0.1-0.8,0.3C115.2,21,114.5,21.6,113.4,22.6z
			 M120.6,10.5c0.4,0,0.7,0.1,0.9,0.4c0.2,0.2,0.4,0.6,0.4,1c0,0.5-0.2,1-0.6,1.4c-0.4,0.4-0.8,0.6-1.3,0.6c-0.4,0-0.7-0.1-0.9-0.4
			c-0.2-0.3-0.4-0.6-0.4-1c0-0.5,0.2-1,0.5-1.4C119.7,10.7,120.1,10.5,120.6,10.5z"/>
		<path class="st0" d="M122.3,22.7l-0.6-0.6c1.6-1.5,2.8-2.5,3.7-3c0.9-0.5,1.7-0.7,2.4-0.7c0.3,0,0.5,0.1,0.6,0.2
			c0.1,0.1,0.2,0.2,0.2,0.4c0,0.1,0,0.3-0.1,0.6l-0.8,3.7c1.2-1.4,2.8-2.7,4.7-3.9c1-0.6,1.8-0.9,2.5-0.9c0.5,0,0.8,0.2,1.1,0.5
			c0.3,0.3,0.4,0.7,0.4,1.3c0,0.4-0.1,0.8-0.2,1.3c-0.2,0.8-0.7,2.5-1.5,5.2c-0.8,2.5-1.2,4.1-1.2,5c0,0.2,0,0.4,0.1,0.6
			c0.1,0.1,0.2,0.2,0.3,0.2c0.4,0,0.9-0.3,1.7-1c0.5-0.5,1.1-0.9,1.6-1.4l0.5,0.7c-1.1,1.2-2.3,2.2-3.5,3c-0.8,0.5-1.4,0.7-1.9,0.7
			c-0.5,0-0.8-0.2-1.1-0.5c-0.3-0.3-0.4-0.9-0.4-1.6c0-1.1,0.7-3.8,2-8.1c0.4-1.5,0.6-2.4,0.6-2.7c0-0.4-0.2-0.6-0.7-0.6
			c-0.5,0-1.1,0.3-1.9,0.8c-1.1,0.8-2.1,1.6-2.9,2.7c-0.5,0.7-0.9,1.7-1.2,3.1l-1.5,6.4h-2.7c0.5-1.8,1-3.6,1.3-5.2l1.6-7
			c0.1-0.3,0.1-0.5,0.1-0.6c0-0.3-0.1-0.5-0.4-0.5c-0.2,0-0.5,0.1-0.8,0.4C123.7,21.4,123,22,122.3,22.7z"/>
		<path class="st0" d="M141.8,33.8h-2.7l2.4-10c1.2-4.9,1.9-8,2.3-9.1c0.4-1.1,0.8-2.1,1.3-2.8c0.5-0.7,1.1-1.4,1.9-2
			c0.8-0.6,1.6-1,2.5-1.3c0.9-0.3,1.7-0.5,2.3-0.5c0.6,0,1.1,0.1,1.4,0.4c0.3,0.2,0.5,0.6,0.5,1c0,0.3-0.1,0.6-0.4,0.9
			c-0.3,0.2-0.6,0.4-1.1,0.4c-0.5,0-1.3-0.1-2.4-0.3c-0.4-0.1-0.7-0.1-0.9-0.1c-0.4,0-0.7,0.1-1.1,0.4c-0.3,0.3-0.6,0.7-0.9,1.4
			c-0.3,0.7-0.6,2.1-1.1,4.3l-1.3,5.8c1.2-1.3,2.4-2.3,3.6-3.1c1-0.5,1.9-0.8,2.7-0.8c0.6,0,1.1,0.2,1.5,0.7c0.4,0.5,0.6,1,0.6,1.7
			c0,1.3-0.7,2.5-2,3.5s-3.4,1.6-6.2,1.6c0.9,0.4,1.7,0.9,2.2,1.4c0.6,0.5,1.1,1.2,1.7,2c0.5,0.9,1.2,2.3,2.1,4.4
			c1,2.4,1.9,4.1,2.8,4.9c0.9,0.8,1.8,1.2,2.8,1.2c0.6,0,1.1-0.1,1.5-0.4c0.4-0.3,0.6-0.5,0.6-0.8c0-0.2-0.1-0.4-0.2-0.7
			c-0.1-0.3-0.2-0.6-0.2-0.8c0-0.3,0.1-0.5,0.3-0.7s0.5-0.3,0.8-0.3c0.3,0,0.6,0.1,0.9,0.4c0.2,0.3,0.4,0.6,0.4,1.1
			c0,0.9-0.4,1.7-1.2,2.3c-0.8,0.7-1.9,1-3.1,1c-1.3,0-2.5-0.3-3.6-1c-1-0.7-2-1.7-2.9-3.2c-0.5-0.9-1.4-2.8-2.7-5.8
			c-0.6-1.4-1.2-2.5-1.6-3.2c-0.4-0.6-0.9-1.1-1.6-1.7L141.8,33.8z M143.8,25.1c1.6,0,3-0.1,4-0.5c1-0.3,1.7-0.8,2.2-1.3
			c0.4-0.5,0.6-1.1,0.6-1.8c0-0.5-0.1-0.8-0.4-1.1c-0.2-0.3-0.5-0.4-0.9-0.4c-1.1,0-2.9,1.3-5.3,3.8L143.8,25.1z"/>
	</g>
	<g>
		<path class="st1" d="M33,49.1c-1.8-0.2-3.7-0.4-5.6-0.8c-4.2-0.8-8.1-1.9-11.6-3.5c-3.5-1.6-6.4-3.4-8.9-5.4
			c-2.3-1.8-3.7-3.7-4-5.7c-0.3-2,0.3-3.8,1.9-5.4C5,28,5.2,27.8,5.4,27.5c0.2-0.2,0.4-0.3,0.8-0.1c0.4,0.1,0.5,0.3,0.3,0.5
			c-0.6,0.5-1.1,1.1-1.4,1.7c-1,1.7-1,3.5,0.1,5.3c1.3,2.1,3.7,3.8,6.7,5.2c3,1.5,6.4,2.6,10,3.6c3.3,0.8,6.7,1.4,10.1,1.7
			c3.3,0.3,6.6,0.6,9.9,0.5c2.4,0,4.8-0.2,7.1-0.5c3.7-0.4,7.4-0.9,11-1.5c3.3-0.5,6.5-1,9.8-1.4c2.9-0.4,5.9-0.7,8.9-0.9
			c4.1-0.3,8.2-0.4,12.5-0.3c1.5,0,2.9,0.2,4.4,0.2c0.5,0,1.1,0.2,1.6,0.2c0.2,0,0.4,0.1,0.3,0.2c0,0.1-0.2,0.1-0.4,0.1
			c-0.7,0-1.3,0-2,0c-2.5,0-4.9,0.3-7.3,0.6c-3.1,0.4-6.1,0.9-9,1.5c-3.8,0.7-7.6,1.4-11.4,2.1c-2.5,0.5-5,0.9-7.6,1.3
			c-2.9,0.4-5.9,0.8-8.8,1.1c-2.1,0.2-4.2,0.3-6.3,0.4c-1.6,0.1-3.2,0.1-4.8,0.1C37.7,49.4,35.4,49.3,33,49.1z"/>
		<path class="st1" d="M97.9,40.9c-1,0-1.9-0.3-2.8-0.4c-3.5-0.7-7-1.1-10.6-1.3C82.3,39.1,80,39,77.7,39c-2.8,0-5.5,0.1-8.2,0.3
			c-2.6,0.2-5.2,0.5-7.8,0.7c-0.9,0.1-1.9,0.2-2.8,0.4c-0.3,0-0.7,0.2-1,0c-0.3-0.2,0-0.4,0.3-0.5c2.9-1.4,6.4-2.3,10.3-2.8
			c4.5-0.6,9.2-0.5,13.9,0c3.1,0.4,6.2,1,9.2,1.8c2.1,0.6,4.2,1.2,6.2,2C97.8,40.9,97.9,40.9,97.9,40.9z"/>
	</g>
	<g>
		<path class="st1" d="M1.4,20.5c1.1,0,2,0.4,2.8,1.1c1.4,1.1,2.5,2.4,3.5,3.7c0.1,0.2,0.2,0.4,0,0.5c-0.1,0.1-0.3,0-0.4-0.1
			c-1.1-0.7-2.3-1.3-3.6-1.7c-0.9-0.3-1.7-0.5-2.5-0.9C1,23,0.7,22.8,0.4,22.5C-0.3,21.8,0,20.7,1,20.6C1.1,20.6,1.3,20.6,1.4,20.5z
			"/>
		<path class="st1" d="M2,15.6c0.6,0.1,1.1,0.4,1.5,0.8c0.9,1,1.5,2.2,1.9,3.6c0,0.1,0,0.2,0,0.2c0,0.1,0.1,0.2,0,0.2
			c-0.1,0-0.1-0.1-0.2-0.1c-0.6-0.9-1.5-1.4-2.4-1.8c-0.6-0.3-1.2-0.6-1.5-1.1c-0.4-0.6-0.3-1.4,0.3-1.7C1.7,15.6,1.9,15.6,2,15.6z"
			/>
	</g>
	<g>
		<path class="st1" d="M165,5.6c0,0.6-0.5,1.1-1,1.4c-0.8,0.6-1.8,0.9-2.7,1.3c-1.5,0.5-2.8,1.3-4.1,2.2c-0.1,0-0.1,0.1-0.2,0.1
			c-0.1,0.1-0.3,0.1-0.4,0c-0.1-0.1-0.1-0.3,0-0.4c0.5-0.7,1-1.4,1.5-2.1c0.8-0.9,1.5-1.9,2.6-2.6c1-0.7,2.1-1.1,3.3-1
			C164.5,4.7,165,5.1,165,5.6z"/>
		<path class="st1" d="M157.5,5.1c0.1-1.4,0.4-2.7,1-3.8c0.3-0.5,0.6-0.8,1.1-1.1c0.5-0.2,1-0.2,1.3,0.1c0.4,0.3,0.5,0.9,0.3,1.4
			c-0.2,0.6-0.6,0.9-1.1,1.3c-1,0.7-1.9,1.4-2.4,2.6c0,0.1-0.1,0.1-0.1,0.1c-0.1,0-0.1-0.1-0.1-0.2C157.5,5.4,157.5,5.2,157.5,5.1z"
			/>
	</g>
</g>
</svg>
