<svg width="40" height="40" viewBox="0 0 40 40" fill="none" xmlns="http://www.w3.org/2000/svg">
<rect width="40" height="40" rx="20" fill="#ED1C24"/>
<path fill-rule="evenodd" clip-rule="evenodd" d="M14.4718 8H25.5282C29.0792 8 32 10.9282 32 14.488V25.512C32 29.0718 29.075 32 25.5282 32H14.4718C10.9208 32 8 29.0677 8 25.512V14.488C8 10.9282 10.925 8 14.4718 8ZM26.4417 12.1891C26.8047 12.1941 27.1515 12.3409 27.4083 12.5982C27.665 12.8556 27.8115 13.2033 27.8164 13.5673C27.8114 13.9312 27.665 14.2787 27.4082 14.536C27.1515 14.7932 26.8047 14.9399 26.4417 14.9446C26.2605 14.9471 26.0807 14.9132 25.9129 14.8449C25.745 14.7765 25.5925 14.6752 25.4644 14.5468C25.3362 14.4184 25.235 14.2656 25.1668 14.0973C25.0985 13.9291 25.0646 13.7489 25.0669 13.5673C25.0646 13.3856 25.0985 13.2053 25.1668 13.0371C25.235 12.8688 25.3362 12.7159 25.4643 12.5875C25.5925 12.459 25.7449 12.3576 25.9128 12.2892C26.0807 12.2207 26.2605 12.1867 26.4417 12.1891ZM19.9699 13.4525H20.0267C23.5777 13.4525 26.5562 16.4376 26.5562 19.9975C26.5562 23.6152 23.5777 26.5433 20.0267 26.5433H19.9699C16.419 26.5433 13.4982 23.6152 13.4982 19.9975C13.4982 16.4376 16.4232 13.4525 19.9699 13.4525ZM19.9699 15.6911H20.0267C22.3751 15.6911 24.3223 17.6432 24.3223 19.9975C24.3223 22.4087 22.3751 24.3617 20.0267 24.3617H19.9699C17.6216 24.3617 15.6743 22.4087 15.6743 19.9975C15.6743 17.6432 17.6216 15.6911 19.9699 15.6911ZM14.5286 10.0702H25.4681C26.6524 10.0718 27.7878 10.5442 28.6252 11.3839C29.4626 12.2235 29.9336 13.3618 29.935 14.5492V25.455C29.9334 26.6422 29.4623 27.7803 28.6249 28.6198C27.7876 29.4593 26.6523 29.9316 25.4681 29.9331H14.5286C13.3444 29.9313 12.2093 29.459 11.372 28.6195C10.5347 27.7801 10.0635 26.6421 10.0617 25.455V14.5458C10.0641 13.3591 10.5356 12.2218 11.3729 11.3829C12.2101 10.544 13.3449 10.072 14.5286 10.0702Z" fill="white"/>
</svg>
