<svg width="24" height="24" viewBox="0 0 24 24" fill="none" xmlns="http://www.w3.org/2000/svg">
<path fill-rule="evenodd" clip-rule="evenodd" d="M6.47176 0H17.5282C21.0792 0 24 2.92816 24 6.48803V17.512C24 21.0718 21.075 24 17.5282 24H6.47176C2.92081 24 0 21.0677 0 17.512V6.48803C0 2.92816 2.92499 0 6.47176 0ZM18.4417 4.18907C18.8047 4.19405 19.1515 4.34085 19.4083 4.59824C19.665 4.85564 19.8115 5.2033 19.8164 5.56727C19.8114 5.93116 19.665 6.27873 19.4082 6.53599C19.1515 6.79325 18.8047 6.93986 18.4417 6.94463C18.2605 6.94711 18.0807 6.91318 17.9129 6.84485C17.745 6.77652 17.5925 6.67517 17.4644 6.54678C17.3362 6.4184 17.235 6.26558 17.1668 6.09734C17.0985 5.92911 17.0646 5.74887 17.0669 5.56727C17.0646 5.38562 17.0985 5.20535 17.1668 5.03707C17.235 4.86879 17.3362 4.71591 17.4643 4.58746C17.5925 4.45901 17.7449 4.35758 17.9128 4.28916C18.0807 4.22073 18.2605 4.1867 18.4417 4.18907ZM11.9699 5.45249H12.0267C15.5777 5.45249 18.5562 8.43762 18.5562 11.9975C18.5562 15.6152 15.5777 18.5433 12.0267 18.5433H11.9699C8.41897 18.5433 5.49816 15.6152 5.49816 11.9975C5.49816 8.43762 8.42315 5.45249 11.9699 5.45249ZM11.9699 7.69113H12.0267C14.3751 7.69113 16.3223 9.64323 16.3223 11.9975C16.3223 14.4087 14.3751 16.3617 12.0267 16.3617H11.9699C9.62156 16.3617 7.67435 14.4087 7.67435 11.9975C7.67435 9.64323 9.62156 7.69113 11.9699 7.69113ZM6.52859 2.07024H17.4681C18.6524 2.07179 19.7878 2.5442 20.6252 3.38386C21.4626 4.22351 21.9336 5.36185 21.935 6.54919V17.455C21.9334 18.6422 21.4623 19.7803 20.6249 20.6198C19.7876 21.4593 18.6523 21.9316 17.4681 21.9331H6.52859C5.34444 21.9313 4.2093 21.459 3.37198 20.6195C2.53466 19.7801 2.06347 18.6421 2.0617 17.455V6.54584C2.06413 5.35915 2.53561 4.22179 3.37286 3.38291C4.21011 2.54403 5.34487 2.07201 6.52859 2.07024Z" fill="white"/>
</svg>
