<svg width="215" height="218" viewBox="0 0 215 218" fill="none" xmlns="http://www.w3.org/2000/svg">
<path d="M189.345 124.251C185.339 124.251 181.631 125.477 178.523 127.537C174.357 103.674 158.583 83.8673 137.228 74.1869L134.018 20.116L119.962 47.1662L101.837 16.5901L93.6501 51.2953L73.7442 37.7604L77.2473 74.6185C56.2437 84.495 40.802 104.233 36.7866 127.929C33.5763 125.639 29.6781 124.251 25.4383 124.251C14.6023 124.251 5.83008 133.074 5.83008 143.97C5.83008 154.842 14.5974 163.674 25.4383 163.674C30.3368 163.674 34.7619 161.806 38.1918 158.819C46.3981 189.719 74.359 212.503 107.682 212.503C140.878 212.503 168.731 189.915 177.069 159.221C180.431 161.968 184.666 163.679 189.345 163.679C200.19 163.679 208.958 154.847 208.958 143.975C208.958 133.074 200.19 124.251 189.345 124.251Z" fill="black"/>
<path d="M101.838 16.5851L119.963 47.1612L134.02 20.1111L137.23 74.182C158.585 83.8624 174.358 103.665 178.525 127.532C181.633 125.472 185.341 124.246 189.346 124.246C200.192 124.246 208.959 133.069 208.959 143.965C208.959 154.837 200.192 163.669 189.346 163.669C184.672 163.669 180.437 161.958 177.071 159.212C168.733 189.91 140.879 212.503 107.683 212.503C74.3605 212.503 46.3995 189.719 38.1932 158.819C34.7634 161.806 30.3382 163.674 25.4398 163.674C14.6038 163.674 5.83155 154.842 5.83155 143.97C5.83155 133.073 14.5989 124.251 25.4398 124.251C29.6747 124.251 33.5729 125.634 36.7881 127.929C40.8034 104.228 56.25 84.495 77.2488 74.6184L73.7457 37.7604L93.6516 51.2953L101.838 16.5851ZM138.303 0L129.175 17.5708L119.651 35.8969L106.537 13.7703L99.6331 2.12341L96.5204 15.315L90.1583 42.2818L76.8048 33.2046L67.2031 26.6775L68.3057 38.2851L71.4526 71.3867C52.4201 81.533 38.4908 99.1578 32.9435 119.926C30.5285 119.156 28.011 118.759 25.4447 118.759C11.613 118.754 0.367188 130.067 0.367188 143.97C0.367188 157.863 11.613 169.171 25.4398 169.171C28.7672 169.171 32.0507 168.48 35.1 167.171C46.2336 197.433 75.1216 218 107.683 218C125.018 218 141.396 212.37 155.052 201.714C166.401 192.857 175.158 180.848 180.184 167.391C183.082 168.563 186.17 169.171 189.346 169.171C203.178 169.171 214.429 157.868 214.429 143.97C214.429 130.067 203.178 118.759 189.346 118.759C186.98 118.759 184.643 119.097 182.399 119.749C176.685 98.4859 162.22 80.6062 142.499 70.6266L139.484 19.7874L138.303 0Z" fill="white"/>
<path d="M107.869 203.686C136.377 203.686 152.111 183.673 152.111 183.673L135.723 168.367C135.723 168.367 163.83 146.015 161.478 130.71C159.132 115.419 141.592 111.893 141.592 111.893L107.625 129.538H107.752L73.795 111.893C73.795 111.893 56.2505 115.419 53.9136 130.71C51.5766 146.015 79.6595 168.367 79.6595 168.367L63.2664 183.673C63.2615 183.673 79.396 203.686 107.869 203.686Z" fill="white"/>
<path d="M90.7182 141.312C90.7182 145.216 87.5616 148.379 83.6877 148.379C79.809 148.379 76.6621 145.211 76.6621 141.312C76.6621 137.414 79.809 134.255 83.6877 134.255C87.5616 134.25 90.7182 137.414 90.7182 141.312Z" fill="black"/>
<path d="M144.562 140.14C144.562 146.319 139.586 151.311 133.458 151.311C127.306 151.311 122.334 146.319 122.334 140.14C122.334 133.961 127.306 128.959 133.458 128.959C139.586 128.964 144.562 133.961 144.562 140.14Z" fill="black"/>
<path d="M35.6837 143.97C35.6837 149.654 31.0878 154.254 25.4381 154.254C19.7785 154.254 15.1973 149.654 15.1973 143.97C15.1973 138.272 19.7785 133.667 25.4381 133.667C31.0878 133.667 35.6837 138.272 35.6837 143.97Z" fill="white"/>
<path d="M199.599 143.97C199.599 149.654 195.017 154.254 189.343 154.254C183.698 154.254 179.107 149.654 179.107 143.97C179.107 138.272 183.698 133.667 189.343 133.667C195.017 133.667 199.599 138.272 199.599 143.97Z" fill="white"/>
<path d="M105.924 171.618C105.924 174.374 103.694 176.606 100.957 176.606C98.2004 176.606 95.9805 174.374 95.9805 171.618C95.9805 168.853 98.1955 166.611 100.957 166.611C103.694 166.611 105.924 168.853 105.924 171.618Z" fill="black"/>
<path d="M119.388 171.618C119.388 174.374 117.168 176.606 114.406 176.606C111.669 176.606 109.439 174.374 109.439 171.618C109.439 168.853 111.669 166.611 114.406 166.611C117.168 166.611 119.388 168.853 119.388 171.618Z" fill="black"/>
</svg>
