<?xml version="1.0" encoding="utf-8"?>
<!-- Generator: Adobe Illustrator 23.0.1, SVG Export Plug-In . SVG Version: 6.00 Build 0)  -->
<svg version="1.1" id="Layer_1" xmlns="http://www.w3.org/2000/svg" xmlns:xlink="http://www.w3.org/1999/xlink" x="0px" y="0px"
	 viewBox="0 0 31 27" style="enable-background:new 0 0 31 27;" xml:space="preserve">
<style type="text/css">
	.st0{fill-rule:evenodd;clip-rule:evenodd;fill:#FFFFFF;}
</style>
<g>
	<path class="st0" d="M15.3,9.8c-0.9-4.9,4.9-7.8,8.3-4.3c0,0,1.5-0.4,2.9-1.3c-0.4,1.1-1.1,2.1-2.1,2.7c0,0,1.8-0.2,2.6-0.7
		c0,0-0.8,1.7-2.3,2.3C25.5,19.8,13.6,26.6,4,21c0,0,4.8,0.3,6.8-2.1c0,0-2.9,0.2-4.4-3.4c0,0,1.1,0.4,2.2-0.1c0,0-3.4-0.6-3.7-4.7
		c0,0,1.1,0.9,2.3,0.6c0,0-3.8-2.3-1.6-6.5C5.5,4.8,9.6,10,15.3,9.8L15.3,9.8z"/>
</g>
</svg>
