<?xml version="1.0" encoding="utf-8"?>
<!-- Generator: Adobe Illustrator 23.0.1, SVG Export Plug-In . SVG Version: 6.00 Build 0)  -->
<svg version="1.1" id="Layer_1" xmlns="http://www.w3.org/2000/svg" xmlns:xlink="http://www.w3.org/1999/xlink" x="0px" y="0px"
	 viewBox="0 0 34 27" style="enable-background:new 0 0 34 27;" xml:space="preserve">
<style type="text/css">
	.st0{fill-rule:evenodd;clip-rule:evenodd;fill:#FFFFFF;}
	.st1{fill-rule:evenodd;clip-rule:evenodd;fill:#222222;}
</style>
<g>
	<path class="st0" d="M9.2,4.5c2.5-0.2,5.5-0.3,7.8-0.3s5.2,0.1,7.8,0.3c3,0.3,4.5,0.8,4.9,3.8c0.2,1.4,0.3,3.3,0.3,5.2
		c0,1.9-0.1,3.9-0.3,5.2c-0.4,3.1-1.9,3.5-4.9,3.8c-2.6,0.3-5.5,0.3-7.8,0.3s-5.3-0.1-7.8-0.3c-3-0.3-4.6-0.7-5-3.8
		C4.1,17,4,15.2,4,13.5l0,0c0-1.7,0.1-3.5,0.3-5.2C4.7,5.3,6.2,4.7,9.2,4.5L9.2,4.5z"/>
	<path class="st1" d="M14.4,9.6l6.8,3.9l-6.8,4V9.6z"/>
</g>
</svg>
