<svg width="536" height="474" viewBox="0 0 536 474" fill="none" xmlns="http://www.w3.org/2000/svg">
<g clip-path="url(#clip0_3861_5798)">
<path d="M248.439 434.095H234.998C233.463 434.11 231.941 433.817 230.521 433.233C229.101 432.649 227.813 431.786 226.732 430.695C225.671 429.646 224.834 428.393 224.271 427.012C223.707 425.63 223.429 424.148 223.453 422.656C223.441 419.528 224.649 416.519 226.82 414.269C227.881 413.172 229.153 412.302 230.558 411.708C231.963 411.115 233.473 410.812 234.998 410.816H248.439V434.095ZM218.406 446.631L212.708 472H229.995L234.569 451.867H248.439V472H265.793V393.056H234.998C219.046 393.056 206.141 406.302 206.141 422.656C206.141 432.701 210.984 441.396 218.406 446.631Z" fill="#826E4A"/>
<path d="M85.6596 434.484L91.0041 410.816H98.1041L103.433 434.484H85.6596ZM111.871 472H129.197L111.417 393.056H77.6757L59.9023 472H77.2149L81.7507 451.87H107.329L111.871 472Z" fill="#826E4A"/>
<path d="M59.8589 393.056H0V410.816L21.2936 410.844V472H38.5904V410.829H59.8589V393.056Z" fill="#826E4A"/>
<path d="M508.156 393.194L497.159 434.355H495.294L484.295 393.194H456.453V472.139H473.835L473.819 412.791V410.967H475.69L486.527 451.87H505.927L516.763 410.967H518.632V412.791L518.616 472.139H536.001V393.194H508.156Z" fill="#826E4A"/>
<path d="M156.693 410.816H170.134C171.659 410.811 173.17 411.115 174.575 411.708C175.98 412.301 177.251 413.172 178.313 414.269C180.484 416.518 181.692 419.528 181.679 422.656C181.703 424.148 181.425 425.63 180.862 427.012C180.298 428.393 179.461 429.646 178.4 430.695C177.319 431.786 176.031 432.649 174.611 433.233C173.191 433.817 171.669 434.11 170.134 434.095H156.693V410.816ZM139.34 393.056V472H156.693V451.87H170.554C176.363 451.926 182.034 450.098 186.72 446.66V446.631C194.146 441.396 198.986 432.688 198.986 422.656C198.986 406.302 186.08 393.056 170.128 393.056H139.34Z" fill="#826E4A"/>
<path d="M315.899 455.367C311.388 455.366 306.979 454.025 303.23 451.515C299.48 449.005 296.557 445.437 294.832 441.264C293.107 437.09 292.656 432.499 293.537 428.069C294.418 423.639 296.59 419.57 299.78 416.376C302.97 413.183 307.034 411.008 311.458 410.128C315.882 409.247 320.468 409.699 324.635 411.428C328.802 413.157 332.364 416.084 334.87 419.84C337.375 423.596 338.713 428.011 338.713 432.528C338.713 435.528 338.122 438.498 336.975 441.269C335.829 444.04 334.148 446.558 332.03 448.679C329.911 450.8 327.396 452.482 324.629 453.63C321.861 454.777 318.895 455.368 315.899 455.367ZM316.26 391.059C310.76 391.011 305.306 392.06 300.215 394.145C295.125 396.229 290.5 399.308 286.611 403.202C282.722 407.096 279.646 411.727 277.562 416.824C275.479 421.921 274.431 427.382 274.478 432.889C274.669 455.405 293.051 473.805 315.542 474.009C321.041 474.058 326.496 473.01 331.586 470.925C336.677 468.841 341.302 465.761 345.191 461.867C349.081 457.974 352.157 453.343 354.24 448.246C356.323 443.149 357.371 437.687 357.323 432.18C357.132 409.664 338.754 391.264 316.26 391.059Z" fill="#826E4A"/>
<path d="M405.532 455.367C401.021 455.366 396.612 454.025 392.862 451.515C389.113 449.005 386.19 445.437 384.465 441.264C382.74 437.091 382.289 432.499 383.17 428.069C384.05 423.639 386.223 419.57 389.413 416.376C392.603 413.183 396.667 411.008 401.091 410.128C405.515 409.247 410.101 409.699 414.268 411.428C418.435 413.157 421.997 416.084 424.502 419.84C427.008 423.596 428.346 428.011 428.346 432.528C428.346 435.528 427.756 438.498 426.609 441.27C425.462 444.041 423.782 446.559 421.663 448.68C419.545 450.801 417.03 452.483 414.262 453.63C411.494 454.778 408.528 455.368 405.532 455.367ZM405.892 391.06C400.393 391.011 394.938 392.059 389.848 394.144C384.757 396.228 380.132 399.307 376.243 403.201C372.353 407.095 369.277 411.726 367.194 416.823C365.111 421.92 364.063 427.382 364.111 432.889C364.302 455.405 382.68 473.805 405.175 474.009C410.674 474.058 416.128 473.009 421.219 470.924C426.309 468.84 430.934 465.76 434.823 461.867C438.713 457.973 441.789 453.342 443.872 448.245C445.955 443.148 447.003 437.687 446.956 432.18C446.762 409.664 428.383 391.264 405.892 391.06Z" fill="#826E4A"/>
<path d="M399.667 281.039C419.751 281.039 436.051 297.751 436.051 318.324C436.051 338.896 419.751 355.677 399.667 355.677C379.583 355.677 363.33 338.906 363.33 318.324C363.33 297.742 379.63 281.039 399.667 281.039ZM399.667 272.005C374.725 272.005 354.484 292.723 354.484 318.324C354.484 343.925 374.725 364.674 399.667 364.674C424.609 364.674 444.853 343.925 444.853 318.324C444.853 292.723 424.641 272.005 399.667 272.005Z" fill="#826E4A"/>
<path d="M419.863 330.387V298.404H411.045L405.66 303.941V308.408H411.045V318.917V330.387H406.441V339.49H424.452V330.387H419.863Z" fill="white"/>
<path d="M388.536 297.202C380.138 297.202 373.305 304.189 373.305 312.859C373.305 321.453 380.138 328.472 388.536 328.472H388.896L383.307 339.49H392.153L401.071 321.912L401.664 320.722C403.054 318.342 403.785 315.632 403.78 312.875C403.78 304.205 396.93 297.218 388.536 297.218V297.202ZM388.536 320.427C384.48 320.427 381.182 317.006 381.182 312.875C381.182 308.687 384.48 305.291 388.536 305.291C392.592 305.291 395.902 308.687 395.902 312.875C395.902 316.99 392.605 320.411 388.536 320.411V320.427Z" fill="white"/>
<path d="M191.471 275.279H172.707V360.725H191.471V275.279Z" fill="white"/>
<path d="M116.992 275.283C102.921 275.283 91.4982 286.978 91.4982 301.461C91.4877 307.462 93.5088 313.289 97.2314 317.991C93.6548 322.486 91.0781 328.268 91.0781 334.577C91.0781 349.045 102.704 360.728 116.804 360.728H156.037V275.283H116.992ZM116.992 294.505H137.305V308.8H116.992C113.274 308.8 110.231 305.479 110.231 301.653C110.231 297.827 113.274 294.515 116.992 294.515V294.505ZM137.305 341.489H116.804C113.042 341.489 110.043 338.171 110.043 334.345C110.043 330.519 113.055 327.182 116.804 327.182H137.305V341.489Z" fill="white"/>
<path d="M331.002 360.728H349.747L330.506 275.283H293.994L274.77 360.728H293.505L298.414 338.937H326.093L331.002 360.728ZM302.64 320.122L308.414 294.505H316.103L321.849 320.122H302.64Z" fill="white"/>
<path d="M272.671 307.319C272.671 289.618 258.697 275.283 241.441 275.283H208.113V360.728H226.893V338.94H241.905L246.854 360.728H265.562L259.393 333.271C267.43 327.603 272.671 318.179 272.671 307.319ZM226.905 294.505H241.453C243.104 294.501 244.738 294.829 246.258 295.472C247.779 296.114 249.154 297.057 250.302 298.244C252.653 300.677 253.961 303.933 253.948 307.319C253.974 308.934 253.674 310.537 253.064 312.033C252.455 313.528 251.55 314.884 250.403 316.02C249.232 317.2 247.836 318.134 246.299 318.766C244.763 319.399 243.115 319.717 241.453 319.702H226.905V294.505Z" fill="white"/>
<path d="M363.847 144.822C359.345 144.824 354.943 146.156 351.193 148.651C348.803 135.131 343.154 122.399 334.734 111.561C326.315 100.723 315.381 92.1076 302.882 86.4624L299.12 23.4354L282.689 54.9756L261.458 19.3265L251.891 59.7813L228.597 44.0269L232.697 86.974C208.144 98.5002 190.067 121.502 185.365 149.125C181.859 146.588 177.71 145.092 173.394 144.81C169.078 144.527 164.77 145.47 160.965 147.529C157.159 149.588 154.011 152.68 151.882 156.45C149.752 160.22 148.728 164.515 148.927 168.842C149.125 173.168 150.538 177.351 153.004 180.91C155.47 184.468 158.888 187.258 162.865 188.959C166.843 190.66 171.22 191.203 175.492 190.525C179.764 189.848 183.758 187.977 187.017 185.129C196.615 221.148 229.334 247.691 268.31 247.691C307.151 247.691 339.751 221.381 349.497 185.593C353.537 188.945 358.614 190.787 363.86 190.807C369.947 190.807 375.785 188.386 380.089 184.076C384.393 179.765 386.812 173.919 386.812 167.824C386.812 161.728 384.393 155.882 380.089 151.572C375.785 147.262 369.947 144.84 363.86 144.84" fill="black"/>
<path d="M261.461 19.3265L282.689 54.9755L299.12 23.4354L302.882 86.4623C315.382 92.1062 326.317 100.721 334.737 111.558C343.156 122.395 348.806 135.127 351.196 148.648C354.18 146.672 357.585 145.422 361.138 144.999C364.69 144.575 368.293 144.989 371.657 146.208C375.021 147.427 378.054 149.418 380.514 152.02C382.973 154.622 384.79 157.764 385.821 161.195C386.851 164.626 387.066 168.251 386.448 171.78C385.83 175.309 384.396 178.644 382.261 181.519C380.127 184.394 377.35 186.729 374.153 188.338C370.957 189.947 367.428 190.785 363.851 190.785C358.606 190.767 353.53 188.925 349.491 185.575C339.773 221.359 307.154 247.676 268.304 247.676C229.328 247.676 196.612 221.129 187.01 185.113C183.758 187.93 179.779 189.772 175.529 190.431C171.28 191.089 166.931 190.536 162.98 188.836C159.03 187.136 155.637 184.356 153.19 180.815C150.743 177.274 149.34 173.115 149.143 168.814C148.946 164.512 149.961 160.242 152.074 156.492C154.187 152.741 157.311 149.662 161.089 147.606C164.867 145.549 169.147 144.6 173.439 144.865C177.731 145.131 181.861 146.6 185.358 149.106C190.06 121.484 208.135 98.4876 232.691 86.9551L228.604 44.0269L251.897 59.7907L261.461 19.3265ZM304.142 0L293.434 20.4848L282.3 41.8296L266.968 16.04L258.891 2.47035L255.242 17.8512L247.8 49.2815L232.196 38.6969L220.93 31.0819L222.222 44.6139L225.895 83.1947C214.914 89.0222 205.25 97.0528 197.506 106.786C189.761 116.519 184.102 127.745 180.882 139.765C178.043 138.865 175.083 138.408 172.105 138.409C168.227 138.369 164.38 139.099 160.786 140.557C157.191 142.015 153.921 144.173 151.165 146.905C148.409 149.636 146.22 152.888 144.727 156.472C143.234 160.056 142.465 163.901 142.465 167.785C142.465 171.668 143.234 175.513 144.727 179.097C146.22 182.681 148.409 185.933 151.165 188.665C153.921 191.396 157.191 193.554 160.786 195.012C164.38 196.47 168.227 197.201 172.105 197.16C175.99 197.161 179.834 196.376 183.409 194.853C196.442 230.104 230.231 254.098 268.323 254.098C288.401 254.173 307.921 247.481 323.74 235.098C337.036 224.731 347.212 210.886 353.143 195.092C356.545 196.475 360.184 197.182 363.857 197.173C367.735 197.213 371.582 196.483 375.176 195.025C378.771 193.566 382.041 191.409 384.797 188.677C387.553 185.945 389.741 182.694 391.235 179.11C392.728 175.526 393.497 171.681 393.497 167.797C393.497 163.914 392.728 160.069 391.235 156.485C389.741 152.901 387.553 149.649 384.797 146.917C382.041 144.185 378.771 142.028 375.176 140.57C371.582 139.111 367.735 138.381 363.857 138.421C361.108 138.414 358.373 138.802 355.735 139.573C352.411 127.279 346.534 115.824 338.488 105.959C330.442 96.0939 320.408 88.0395 309.041 82.3221L305.506 23.0556L304.142 0Z" fill="white"/>
<path d="M268.514 237.411C301.886 237.411 320.299 214.083 320.299 214.083L301.118 196.266C301.118 196.266 334.009 170.213 331.245 152.361C328.48 134.51 307.979 130.448 307.979 130.448L268.251 150.971H268.383L228.658 130.433C228.658 130.433 208.145 134.529 205.408 152.346C202.672 170.162 235.519 196.266 235.519 196.266L216.335 214.098C216.335 214.098 235.231 237.427 268.514 237.427" fill="white"/>
<path d="M248.479 164.713C248.481 166.344 248 167.938 247.097 169.295C246.193 170.651 244.909 171.709 243.405 172.335C241.902 172.96 240.247 173.125 238.649 172.809C237.052 172.492 235.585 171.709 234.432 170.557C233.28 169.405 232.494 167.937 232.175 166.338C231.856 164.739 232.018 163.082 232.64 161.575C233.261 160.068 234.315 158.78 235.668 157.873C237.021 156.966 238.613 156.481 240.241 156.48C242.423 156.481 244.515 157.348 246.059 158.891C247.604 160.435 248.474 162.528 248.479 164.713Z" fill="black"/>
<path d="M311.471 163.335C311.471 165.912 310.709 168.431 309.279 170.574C307.85 172.717 305.818 174.387 303.441 175.373C301.063 176.359 298.447 176.617 295.924 176.115C293.4 175.612 291.082 174.371 289.262 172.548C287.443 170.726 286.204 168.404 285.703 165.877C285.201 163.35 285.459 160.73 286.445 158.35C287.43 155.969 289.099 153.935 291.239 152.504C293.379 151.073 295.895 150.31 298.468 150.312C301.916 150.316 305.221 151.689 307.659 154.131C310.096 156.573 311.467 159.883 311.471 163.335Z" fill="black"/>
<path d="M184.07 167.808C184.07 170.184 183.367 172.506 182.05 174.481C180.732 176.456 178.858 177.996 176.667 178.904C174.475 179.813 172.063 180.05 169.737 179.586C167.41 179.122 165.274 177.977 163.597 176.297C161.921 174.616 160.78 172.475 160.319 170.145C159.857 167.815 160.097 165.4 161.007 163.206C161.917 161.013 163.456 159.138 165.43 157.821C167.403 156.503 169.723 155.802 172.095 155.805C173.669 155.804 175.227 156.115 176.681 156.718C178.135 157.321 179.456 158.206 180.568 159.32C181.68 160.435 182.562 161.759 183.163 163.215C183.764 164.672 184.072 166.232 184.07 167.808Z" fill="white"/>
<path d="M375.852 167.808C375.854 170.184 375.152 172.507 373.835 174.484C372.518 176.461 370.646 178.002 368.454 178.913C366.263 179.823 363.851 180.063 361.523 179.601C359.196 179.139 357.057 177.996 355.379 176.317C353.7 174.638 352.556 172.499 352.091 170.168C351.627 167.838 351.863 165.423 352.77 163.227C353.677 161.031 355.213 159.154 357.185 157.833C359.157 156.512 361.477 155.806 363.849 155.805C365.426 155.8 366.987 156.108 368.444 156.709C369.902 157.31 371.226 158.194 372.341 159.309C373.456 160.425 374.341 161.75 374.943 163.208C375.546 164.667 375.854 166.23 375.852 167.808Z" fill="white"/>
<path d="M266.271 200.033C266.271 201.186 265.929 202.313 265.29 203.271C264.65 204.23 263.741 204.977 262.677 205.418C261.613 205.859 260.442 205.975 259.313 205.749C258.184 205.524 257.147 204.969 256.333 204.153C255.519 203.338 254.965 202.299 254.74 201.168C254.516 200.037 254.632 198.865 255.073 197.8C255.514 196.735 256.261 195.825 257.218 195.184C258.176 194.544 259.302 194.203 260.453 194.204C261.996 194.205 263.475 194.82 264.566 195.913C265.657 197.006 266.27 198.487 266.271 200.033Z" fill="black"/>
<path d="M281.993 200.033C281.99 201.182 281.646 202.304 281.006 203.258C280.365 204.211 279.457 204.953 278.396 205.39C277.335 205.827 276.168 205.94 275.043 205.713C273.918 205.486 272.885 204.931 272.075 204.117C271.266 203.303 270.715 202.266 270.493 201.139C270.27 200.012 270.387 198.844 270.827 197.783C271.268 196.722 272.012 195.815 272.967 195.177C273.922 194.54 275.044 194.2 276.191 194.2C276.955 194.2 277.711 194.351 278.417 194.645C279.122 194.938 279.763 195.368 280.302 195.91C280.841 196.452 281.268 197.095 281.558 197.802C281.848 198.51 281.996 199.268 281.993 200.033Z" fill="black"/>
</g>
<defs>
<clipPath id="clip0_3861_5798">
<rect width="536" height="474" fill="white"/>
</clipPath>
</defs>
</svg>
