<svg width="138" height="150" viewBox="0 0 138 150" fill="none" xmlns="http://www.w3.org/2000/svg">
<path d="M119.998 117.5C127.798 117.5 134.198 124 134.198 132C134.198 140 127.898 146.5 119.998 146.5C112.198 146.5 105.898 140 105.898 132C105.898 124 112.198 117.5 119.998 117.5ZM119.998 114C110.298 114 102.398 122 102.398 132C102.398 141.9 110.298 150 119.998 150C129.698 150 137.598 141.9 137.598 132C137.598 122 129.798 114 119.998 114Z" fill="white"/>
<path d="M127.898 136.7V124.3H124.498L122.398 126.4V128.1H124.498V132.2V136.7H122.698V140.2H129.698V136.7H127.898Z" fill="white"/>
<path d="M115.697 123.8C112.397 123.8 109.797 126.5 109.797 129.9C109.797 133.2 112.497 136 115.697 136H115.797L113.597 140.3H116.997L120.497 133.5L120.697 133C121.197 132.1 121.497 131.1 121.497 129.9C121.597 126.5 118.997 123.8 115.697 123.8ZM115.697 132.8C114.097 132.8 112.797 131.5 112.797 129.9C112.797 128.3 114.097 127 115.697 127C117.297 127 118.597 128.3 118.597 129.9C118.597 131.5 117.297 132.8 115.697 132.8Z" fill="white"/>
<path d="M31.7969 148.5V115.3H39.0969V148.5H31.7969Z" fill="white"/>
<path d="M10.1 115.3C4.6 115.3 0.2 119.8 0.2 125.5C0.2 127.9 1 130.2 2.4 131.9C1 133.6 0 135.9 0 138.3C0 143.9 4.5 148.5 10 148.5H25.3V115.3H10.1ZM10.1 122.7H18V128.3H10.1C8.7 128.3 7.5 127 7.5 125.5C7.5 124 8.6 122.7 10.1 122.7ZM18 141H10C8.5 141 7.4 139.7 7.4 138.2C7.4 136.7 8.6 135.4 10 135.4H18V141Z" fill="white"/>
<path d="M93.2984 148.5H100.598L93.0984 115.3H78.8984L71.3984 148.5H78.6984L80.5984 140H91.3984L93.2984 148.5ZM82.2984 132.7L84.4984 122.7H87.4984L89.6984 132.7H82.2984Z" fill="white"/>
<path d="M70.6 127.7C70.6 120.8 65.2 115.3 58.5 115.3H52.8H45.5V148.5H52.8V140H58.5C58.6 140 58.6 140 58.7 140L60.6 148.5H67.9L65.5 137.8C68.6 135.6 70.6 131.9 70.6 127.7ZM52.8 122.7H58.5C59.8 122.7 61 123.2 61.9 124.2C62.8 125.2 63.3 126.4 63.3 127.7C63.3 129.4 62.6 130.5 61.9 131.1C61 132 59.8 132.5 58.4 132.5H52.7V122.7H52.8Z" fill="white"/>
<g clip-path="url(#clip0_872_1793)">
<path d="M106.396 57.5673C104.544 57.5673 102.829 58.1353 101.391 59.0896C99.4644 48.0337 92.1694 38.8568 82.2931 34.3718L80.8084 9.32001L74.3076 21.8527L65.9251 7.6864L62.1388 23.7658L52.9327 17.4949L54.5528 34.5717C44.8389 39.1477 37.6974 48.2927 35.8404 59.2713C34.3556 58.2103 32.5528 57.5673 30.592 57.5673C25.5805 57.5673 21.5234 61.6547 21.5234 66.7032C21.5234 71.7404 25.5782 75.8324 30.592 75.8324C32.8574 75.8324 34.904 74.9667 36.4902 73.583C40.2855 87.8993 53.217 98.4553 68.6283 98.4553C83.9809 98.4553 96.8627 87.9902 100.719 73.7693C102.274 75.0417 104.232 75.8347 106.396 75.8347C111.412 75.8347 115.467 71.7427 115.467 66.7055C115.467 61.6547 111.412 57.5673 106.396 57.5673Z" fill="black"/>
<path d="M65.9288 7.68412L74.3114 21.8504L80.8121 9.31773L82.2968 34.3695C92.1731 38.8545 99.4681 48.0291 101.395 59.0873C102.832 58.133 104.547 57.565 106.4 57.565C111.416 57.565 115.471 61.6524 115.471 66.7009C115.471 71.7381 111.416 75.8301 106.4 75.8301C104.238 75.8301 102.28 75.0371 100.723 73.7648C96.8665 87.9879 83.9846 98.4553 68.632 98.4553C53.2207 98.4553 40.2892 87.8993 36.4939 73.583C34.9077 74.9667 32.8611 75.8324 30.5957 75.8324C25.5842 75.8324 21.5272 71.7404 21.5272 66.7032C21.5272 61.6547 25.5819 57.5672 30.5957 57.5672C32.5543 57.5672 34.3571 58.208 35.8441 59.2713C37.7011 48.2904 44.8449 39.1476 54.5565 34.5717L52.9364 17.4949L62.1426 23.7658L65.9288 7.68412ZM82.7932 0L78.5715 8.1408L74.167 16.6315L68.1017 6.37995L64.9089 0.983803L63.4693 7.09565L60.527 19.5897L54.3512 15.3841L49.9106 12.36L50.4205 17.738L51.8759 33.0744C43.0736 37.7753 36.6316 45.9411 34.0661 55.5633C32.9491 55.2066 31.7848 55.0225 30.5979 55.0225C24.201 55.0203 19 60.2619 19 66.7032C19 73.14 24.201 78.3793 30.5957 78.3793C32.1346 78.3793 33.6531 78.059 35.0634 77.4523C40.2125 91.4732 53.5727 101.002 68.632 101.002C76.649 101.002 84.2238 98.3939 90.5395 93.4567C95.7879 89.3534 99.8382 83.7891 102.162 77.5546C103.503 78.0976 104.931 78.3793 106.4 78.3793C112.797 78.3793 118 73.1422 118 66.7032C118 60.2619 112.797 55.0225 106.4 55.0225C105.305 55.0225 104.225 55.1793 103.187 55.4815C100.544 45.6298 93.8542 37.3459 84.7337 32.7222L83.3393 9.16777L82.7932 0Z" fill="white"/>
<path d="M68.7207 94.3702C81.9049 94.3702 89.1818 85.0979 89.1818 85.0979L81.6025 78.0068C81.6025 78.0068 94.6017 67.6507 93.5141 60.5596C92.4288 53.4753 84.317 51.8417 84.317 51.8417L68.6078 60.0166H68.6665L52.9619 51.8417C52.9619 51.8417 44.8478 53.4753 43.767 60.5596C42.6862 67.6507 55.6741 78.0068 55.6741 78.0068L48.0926 85.0979C48.0903 85.0979 55.5523 94.3702 68.7207 94.3702Z" fill="white"/>
<path d="M60.7898 65.4718C60.7898 67.2803 59.3299 68.7458 57.5383 68.7458C55.7444 68.7458 54.2891 67.2781 54.2891 65.4718C54.2891 63.6655 55.7444 62.2023 57.5383 62.2023C59.3299 62.2 60.7898 63.6655 60.7898 65.4718Z" fill="black"/>
<path d="M85.6864 64.9287C85.6864 67.7915 83.3849 70.1045 80.5509 70.1045C77.7055 70.1045 75.4062 67.7915 75.4062 64.9287C75.4062 62.0659 77.7055 59.7484 80.5509 59.7484C83.3849 59.7507 85.6864 62.0659 85.6864 64.9287Z" fill="black"/>
<path d="M35.334 66.7032C35.334 69.3365 33.2085 71.4677 30.5956 71.4677C27.9781 71.4677 25.8594 69.3365 25.8594 66.7032C25.8594 64.063 27.9781 61.9296 30.5956 61.9296C33.2085 61.9296 35.334 64.063 35.334 66.7032Z" fill="white"/>
<path d="M111.141 66.7032C111.141 69.3365 109.022 71.4677 106.398 71.4677C103.787 71.4677 101.664 69.3365 101.664 66.7032C101.664 64.063 103.787 61.9296 106.398 61.9296C109.022 61.9296 111.141 64.063 111.141 66.7032Z" fill="white"/>
<path d="M67.8173 79.5131C67.8173 80.79 66.7861 81.8238 65.5203 81.8238C64.2454 81.8238 63.2188 80.79 63.2188 79.5131C63.2188 78.2317 64.2432 77.1934 65.5203 77.1934C66.7861 77.1934 67.8173 78.2317 67.8173 79.5131Z" fill="black"/>
<path d="M74.0461 79.5131C74.0461 80.79 73.0195 81.8238 71.7423 81.8238C70.4765 81.8238 69.4453 80.79 69.4453 79.5131C69.4453 78.2317 70.4765 77.1934 71.7423 77.1934C73.0195 77.1934 74.0461 78.2317 74.0461 79.5131Z" fill="black"/>
</g>
<defs>
<clipPath id="clip0_872_1793">
<rect width="99" height="101" fill="white" transform="translate(19)"/>
</clipPath>
</defs>
</svg>
