<svg width="198" height="200" viewBox="0 0 198 200" fill="none" xmlns="http://www.w3.org/2000/svg">
<g clip-path="url(#clip0_3014_4150)">
<path d="M174.8 113.995C171.095 113.995 167.665 115.119 164.79 117.009C160.937 95.1163 146.347 76.9443 126.594 68.063L123.625 18.4556L110.623 43.2728L93.858 15.2207L86.2855 47.0611L67.8732 34.6435L71.1134 68.459C51.6857 77.5202 37.4026 95.6292 33.6885 117.369C30.7191 115.268 27.1134 113.995 23.1917 113.995C13.1687 113.995 5.05469 122.089 5.05469 132.086C5.05469 142.06 13.1642 150.163 23.1917 150.163C27.7226 150.163 31.8157 148.449 34.9882 145.709C42.5788 174.058 68.4418 194.961 99.2643 194.961C129.97 194.961 155.733 174.238 163.446 146.078C166.555 148.598 170.472 150.168 174.8 150.168C184.832 150.168 192.941 142.065 192.941 132.09C192.941 122.089 184.832 113.995 174.8 113.995Z" fill="black"/>
<path d="M93.8576 15.2161L110.623 43.2682L123.624 18.4509L126.594 68.0584C146.346 76.9397 160.936 95.1072 164.79 117.004C167.665 115.115 171.095 113.99 174.8 113.99C184.832 113.99 192.941 122.084 192.941 132.081C192.941 142.056 184.832 150.159 174.8 150.159C170.476 150.159 166.559 148.588 163.445 146.069C155.733 174.233 129.969 194.961 99.264 194.961C68.4414 194.961 42.5785 174.058 34.9879 145.709C31.8154 148.449 27.7223 150.163 23.1914 150.163C13.1684 150.163 5.05436 142.06 5.05436 132.086C5.05436 122.088 13.1639 113.995 23.1914 113.995C27.1085 113.995 30.7143 115.263 33.6882 117.369C37.4023 95.6246 51.6898 77.5201 71.113 68.4588L67.8728 34.6433L86.2851 47.0609L93.8576 15.2161ZM127.586 0L119.143 16.1204L110.334 32.9337L98.2035 12.6336L91.8178 1.94812L88.9387 14.0508L83.0539 38.7915L70.7024 30.4636L61.8211 24.4753L62.841 35.1247L65.7518 65.4939C48.1473 74.8026 35.2632 90.9725 30.1321 110.026C27.8983 109.32 25.5696 108.956 23.1959 108.956C10.4021 108.951 0 119.331 0 132.086C0 144.832 10.4021 155.207 23.1914 155.207C26.2691 155.207 29.3063 154.572 32.1268 153.371C42.425 181.135 69.1454 200.005 99.264 200.005C115.298 200.005 130.448 194.839 143.079 185.063C153.576 176.937 161.676 165.919 166.325 153.573C169.005 154.649 171.862 155.207 174.8 155.207C187.593 155.207 198 144.836 198 132.086C198 119.331 187.593 108.956 174.8 108.956C172.611 108.956 170.449 109.266 168.373 109.864C163.089 90.3561 149.708 73.9523 131.467 64.7965L128.679 18.154L127.586 0Z" fill="white"/>
<path d="M99.4335 186.872C125.802 186.872 140.356 168.511 140.356 168.511L125.197 154.469C125.197 154.469 151.196 133.962 149.02 119.92C146.85 105.892 130.626 102.657 130.626 102.657L99.2079 118.845H99.3252L67.916 102.657C67.916 102.657 51.6879 105.892 49.5262 119.92C47.3646 133.962 73.3404 154.469 73.3404 154.469L58.1773 168.511C58.1728 168.511 73.0967 186.872 99.4335 186.872Z" fill="white"/>
<path d="M83.5718 129.647C83.5718 133.228 80.652 136.13 77.0688 136.13C73.4811 136.13 70.5703 133.224 70.5703 129.647C70.5703 126.07 73.4811 123.173 77.0688 123.173C80.652 123.168 83.5718 126.07 83.5718 129.647Z" fill="black"/>
<path id="blink" d="M133.373 128.572C133.373 134.241 128.77 138.821 123.102 138.821C117.411 138.821 112.812 134.241 112.812 128.572C112.812 122.903 117.411 118.314 123.102 118.314C128.77 118.318 133.373 122.903 133.373 128.572Z" fill="black"/>
<path d="M32.6681 132.085C32.6681 137.3 28.417 141.52 23.1912 141.52C17.9563 141.52 13.7188 137.3 13.7188 132.085C13.7188 126.857 17.9563 122.633 23.1912 122.633C28.417 122.633 32.6681 126.857 32.6681 132.085Z" fill="white"/>
<path d="M184.282 132.085C184.282 137.3 180.044 141.52 174.796 141.52C169.575 141.52 165.328 137.3 165.328 132.085C165.328 126.857 169.575 122.633 174.796 122.633C180.044 122.633 184.282 126.857 184.282 132.085Z" fill="white"/>
<path d="M97.6346 157.452C97.6346 159.98 95.5723 162.027 93.0406 162.027C90.4908 162.027 88.4375 159.98 88.4375 157.452C88.4375 154.914 90.4863 152.858 93.0406 152.858C95.5723 152.858 97.6346 154.914 97.6346 157.452Z" fill="black"/>
<path d="M110.092 157.452C110.092 159.98 108.039 162.027 105.485 162.027C102.953 162.027 100.891 159.98 100.891 157.452C100.891 154.914 102.953 152.858 105.485 152.858C108.039 152.858 110.092 154.914 110.092 157.452Z" fill="black"/>
</g>
<defs>
<clipPath id="clip0_3014_4150">
<rect width="198" height="200" fill="white"/>
</clipPath>
</defs>
</svg>
