<svg width="264" height="69" viewBox="0 0 264 69" fill="none" xmlns="http://www.w3.org/2000/svg">
<path d="M230.236 6.70833C245.201 6.70833 257.48 19.1667 257.48 34.5C257.48 49.8333 245.393 62.2917 230.236 62.2917C215.271 62.2917 203.184 49.8333 203.184 34.5C203.184 19.1667 215.271 6.70833 230.236 6.70833ZM230.236 0C211.626 0 196.469 15.3333 196.469 34.5C196.469 53.475 211.626 69 230.236 69C248.847 69 264.004 53.475 264.004 34.5C264.004 15.3333 249.039 0 230.236 0Z" fill="white"/>
<path d="M245.396 43.5084V19.7417H238.873L234.844 23.7667V27.025H238.873V34.8834V43.5084H235.419V50.2167H248.85V43.5084H245.396Z" fill="white"/>
<path d="M221.984 18.7832C215.652 18.7832 210.664 23.9582 210.664 30.4749C210.664 36.7999 215.844 42.1665 221.984 42.1665H222.176L217.955 50.4082H224.478L231.193 37.3749L231.577 36.4165C232.536 34.6915 233.112 32.7749 233.112 30.4749C233.304 23.9582 228.315 18.7832 221.984 18.7832ZM221.984 36.0332C218.914 36.0332 216.42 33.5415 216.42 30.4749C216.42 27.4082 218.914 24.9165 221.984 24.9165C225.054 24.9165 227.548 27.4082 227.548 30.4749C227.548 33.5415 225.054 36.0332 221.984 36.0332Z" fill="white"/>
<path d="M61.0156 66.125V2.4917H75.0214V66.125H61.0156Z" fill="white"/>
<path d="M19.3779 2.4917C8.82558 2.4917 0.383721 11.1167 0.383721 22.0417C0.383721 26.6417 1.9186 31.05 4.60465 34.3084C1.9186 37.5667 0 41.975 0 46.575C0 57.3084 8.63372 66.125 19.186 66.125H48.5407V2.4917H19.3779ZM19.3779 16.675H34.5349V27.4084H19.3779C16.6919 27.4084 14.3895 24.9167 14.3895 22.0417C14.3895 19.1667 16.5 16.675 19.3779 16.675ZM34.5349 51.75H19.186C16.3081 51.75 14.1977 49.2584 14.1977 46.3834C14.1977 43.5084 16.5 41.0167 19.186 41.0167H34.5349V51.75Z" fill="white"/>
<path d="M179.01 66.125H193.015L178.626 2.4917H151.382L136.992 66.125H150.998L154.643 49.8334H175.364L179.01 66.125ZM157.905 35.8417L162.126 16.675H167.882L172.103 35.8417H157.905Z" fill="white"/>
<path d="M135.454 26.2584C135.454 13.0334 125.093 2.4917 112.239 2.4917H101.303H87.2969V66.125H101.303V49.8334H112.239C112.431 49.8334 112.431 49.8334 112.622 49.8334L116.268 66.125H130.274L125.669 45.6167C131.617 41.4 135.454 34.3084 135.454 26.2584ZM101.303 16.675H112.239C114.733 16.675 117.035 17.6334 118.762 19.55C120.489 21.4667 121.448 23.7667 121.448 26.2584C121.448 29.5167 120.105 31.625 118.762 32.775C117.035 34.5 114.733 35.4584 112.047 35.4584H101.111V16.675H101.303Z" fill="white"/>
</svg>
